# xmcd
#
# Track frame offsets:
#	150
#	11477
#	26408
#	40192
#	55225
#	70164
#	85011
#	97435
#	108632
#	127055
#	139002
#	151825
#	170139
#	184494
#	197306
#	210180
#	222340
#	235569
#	247289
#	260595
#	274175
#	286232
#	299668
#	313605
#	327246
#
# Disc length: 4531 seconds
#
# Revision: 1
# Processed by: cddbd v1.5.2PL0 Copyright (c) Steve Scherf et al.
# Submitted via: audiograbber 1.83.01
#
DISCID=7d11b119
DTITLE=Various Artist - The War Years CD2
DYEAR=1900
DGENRE=Oldies
TTITLE0=Gracie Fields - Sing As We Go
TTITLE1=Vera Lynn - The White Cliffs Of Dover
TTITLE2=The Mayfair Orchestra - Jerusalem
TTITLE3=Billie Holiday - Georgia On My Mind
TTITLE4=Glenn Miller - Moonlight Serenade
TTITLE5=Peggy Lee - The Way You Look Tonight
TTITLE6=Perry Como - Temptation
TTITLE7=The Andrews Sisters - Straighten Up And Fly Right
TTITLE8=Django Reinhardt - Nuages
TTITLE9=Bing Crosby - You Are My Sunshine
TTITLE10=Al Jolson - Rock-a-Bye Your Baby
TTITLE11=Sidney Bechet - Salty Dog
TTITLE12=Gene Krupa - Drum Boogie
TTITLE13=Mel Tormé - It Happened In Monterey
TTITLE14=Oscar Peterson - Blue Moon
TTITLE15=Ella Fitzgerald - Sing Song Swing
TTITLE16=Frank Sinatra - It Could Happen To You
TTITLE17=Jo Stafford - Sugar (That Sugar Baby o' Mine)
TTITLE18=Coleman Hawkins - Hawkins Barrel House
TTITLE19=Billie Holiday - On The Sunny Side Of The Street
TTITLE20=Benny Goodman - Peace, Brother
TTITLE21=Cab Calloway - Jumpin' Jive
TTITLE22=George Formby - Leaning On A Lamp Post
TTITLE23=Billy Cotton - Me And My Girl
TTITLE24=Dick Haymes - You'll Never Know
EXTD=(p)2009 Weton-Wesgram BV, Netherlands
EXTT0=
EXTT1=
EXTT2=
EXTT3=
EXTT4=
EXTT5=
EXTT6=
EXTT7=
EXTT8=
EXTT9=
EXTT10=
EXTT11=
EXTT12=
EXTT13=
EXTT14=
EXTT15=
EXTT16=
EXTT17=
EXTT18=
EXTT19=
EXTT20=
EXTT21=
EXTT22=
EXTT23=
EXTT24=
PLAYORDER=
